<svg xmlns="http://www.w3.org/2000/svg" version="1.1" xmlns:xlink="http://www.w3.org/1999/xlink" width="512" height="512" x="0" y="0" viewBox="0 0 512 512" style="enable-background:new 0 0 512 512" xml:space="preserve" class=""><g>
    <path fill="#1d7cff" d="M437.889 230.836c-4.131-.429-102.133-10.425-185.798-2.716-33.917 3.125-58.879 33.154-55.753 67.071 9.442 64.048 63.848 56.083 112.869 53.721 13.035-.628 19.259 16.052 8.796 23.851-14.865 11.08-36.517 13.172-63.946 14.385-68.082.11-102.723-42.962-110.185-110.264-12.839-99.892 70.108-182.842 165.671-143.671 72.703 35.792 127.783-71.639 56.237-109.779C236.843-42.549 61.659 37.294 30.011 181.76-57.97 551.514 428.234 616.918 460.04 346.848c53.247-26.168 37.953-110.991-22.151-116.012z" opacity="1" data-original="#0d8ba0" class=""></path><path fill="#1557e4" d="M460.04 346.85C437.71 536.44 191.46 560.7 77.11 430.41c18.59 4.77 38.08 7.31 58.16 7.31 56.13 0 107.63-19.81 147.89-52.83 14.02-1.91 25.71-5.32 34.84-12.13 8.09-6.03 6.21-17.35-1.07-21.9 28.07-34.75 46.37-77.72 50.73-124.73 39.16 1.53 68.03 4.48 70.23 4.71 60.1 5.02 75.4 89.84 22.15 116.01z" opacity="1" data-original="#02718c" class=""></path><path fill="#0635b8" d="M460.04 346.85c-12.34 104.73-93 159.01-182.02 164.66 82.67-41.82 139.34-127.55 139.34-226.52 0-19.4-2.18-38.29-6.31-56.44 15.62 1.14 25.58 2.16 26.84 2.29 60.1 5.02 75.4 89.84 22.15 116.01z" opacity="1" data-original="#015382" class=""></path><path fill="#4364d7" d="m88.38 195.65.13-.52.11-.53c10.53-48.08 40.9-79.04 64.52-96.55 21.737-16.115 46.558-27.469 72.36-33.365 13.926-3.183 23.623-15.773 23.105-30.048l-.022-.6c-.671-18.583-18.113-31.979-36.24-27.835C126.302 25.869 49.877 91.073 30.01 181.76c-15.071 63.34-13.292 117.747.166 163.066 5.84 19.665 29.596 27.397 46.072 15.176l.606-.449c10.056-7.462 14.237-20.401 10.723-32.42-11.072-37.86-10.899-82.305.803-131.483z" opacity="1" data-original="#12adb5" class=""></path><path fill="#4c82f3" d="M187.015 44.571c-7.367-15.253-26.031-21.286-40.873-13.123C89.401 62.655 44.553 115.378 30.01 181.76c-5.584 23.466-8.854 45.705-10.074 66.71-.991 17.052 12.484 31.455 29.565 31.455h.804c15.782 0 28.674-12.381 29.582-28.137 1.031-17.892 3.854-36.642 8.493-56.138l.13-.52.11-.53c10.53-48.08 40.9-79.04 64.52-96.55a194.427 194.427 0 0 1 21.905-14.066c13.743-7.579 19.109-24.626 12.286-38.76l-.316-.653z" opacity="1" data-original="#3cd3d3" class=""></path><path fill="#4364d7" d="M257.6 287.87c19.13-1.77 40.98-2.66 64.93-2.66 4.673 0 9.293.034 13.839.096 16.689.228 30.359-13.193 30.359-29.884v-.221c0-16.343-13.121-29.662-29.463-29.887-27.267-.376-57.03.213-85.176 2.806-33.92 3.13-58.88 33.15-55.75 67.07 7.327 49.712 41.743 56.04 79.704 55.278 16.362-.328 29.477-13.647 29.477-30.012 0-16.926-13.989-30.477-30.909-29.997-1.582.045-2.946.071-3.991.071-7.19 0-11.68-.46-14.34-.9-.04-.19-.09-.39-.13-.59.2-.63.75-1.11 1.45-1.17z" opacity="1" data-original="#12adb5" class=""></path><circle cx="284.864" cy="287.868" r="30" fill="#4c82f3" opacity="1" data-original="#3cd3d3" class="">
        
</circle><circle cx="137.09" cy="393.392" r="30" fill="#4364d7" opacity="1" data-original="#12adb5" class=""></circle></g></svg>